<?xml version="1.0" encoding="utf-8"?>
<!-- Generator: Adobe Illustrator 23.0.3, SVG Export Plug-In . SVG Version: 6.00 Build 0)  -->
<svg version="1.1" id="Layer_1" xmlns="http://www.w3.org/2000/svg" xmlns:xlink="http://www.w3.org/1999/xlink" x="0px" y="0px"
	 viewBox="0 0 100 50" style="enable-background:new 0 0 100 50;" xml:space="preserve">
<style type="text/css">
	.st0{fill:#3DCD58;}
</style>
<g>
	<path class="st0" d="M1.34,13.43c-0.17-0.14-0.25-0.34-0.25-0.6V6.7c0-0.25,0.09-0.44,0.26-0.58C1.52,5.98,1.72,5.9,1.95,5.9
		c0.23,0,0.43,0.07,0.6,0.2C2.72,6.23,2.8,6.42,2.8,6.65v0.53C3.3,6.26,4.12,5.8,5.26,5.8c0.65,0,1.2,0.16,1.65,0.48
		C7.35,6.6,7.66,7.01,7.82,7.53c0.23-0.58,0.58-1.01,1.05-1.3C9.33,5.94,9.89,5.8,10.53,5.8c0.85,0,1.54,0.25,2.07,0.74
		s0.79,1.23,0.79,2.22v4.07c0,0.26-0.09,0.46-0.26,0.6c-0.17,0.14-0.37,0.21-0.6,0.21s-0.43-0.07-0.6-0.21s-0.25-0.34-0.25-0.6v-4.1
		c0-0.59-0.14-1.04-0.41-1.34c-0.27-0.3-0.66-0.44-1.16-0.44c-0.6,0-1.09,0.22-1.47,0.65C8.27,8.03,8.08,8.64,8.08,9.41v3.41
		c0,0.26-0.08,0.46-0.25,0.6c-0.17,0.14-0.37,0.22-0.6,0.22c-0.23,0-0.43-0.07-0.6-0.22c-0.17-0.14-0.25-0.35-0.25-0.6V8.78
		c0-0.61-0.14-1.07-0.41-1.38C5.7,7.09,5.32,6.94,4.82,6.94c-0.61,0-1.1,0.21-1.47,0.62C2.98,7.98,2.8,8.54,2.8,9.26v3.57
		c0,0.26-0.09,0.46-0.26,0.6s-0.38,0.21-0.61,0.21C1.71,13.64,1.51,13.57,1.34,13.43z"/>
	<path class="st0" d="M17.06,16.84c-0.22,0-0.41-0.08-0.58-0.23s-0.26-0.34-0.26-0.56c0-0.06,0.01-0.11,0.02-0.17
		c0.02-0.06,0.04-0.11,0.06-0.17l1.53-3.11l-2.8-5.49c-0.06-0.12-0.09-0.25-0.09-0.36c0-0.14,0.04-0.28,0.12-0.39
		c0.08-0.12,0.18-0.21,0.31-0.27c0.13-0.06,0.26-0.1,0.4-0.1c0.15,0,0.29,0.04,0.42,0.12c0.13,0.08,0.24,0.21,0.32,0.38l2.16,4.4
		l2.21-4.5c0.17-0.34,0.42-0.5,0.74-0.5c0.21,0,0.4,0.07,0.57,0.22c0.17,0.15,0.25,0.33,0.25,0.54c0,0.12-0.03,0.23-0.09,0.35
		l-4.62,9.39C17.59,16.69,17.36,16.84,17.06,16.84z"/>
	<path class="st0" d="M23.68,12.52c-0.08-0.06-0.12-0.15-0.12-0.28c0-0.1,0.02-0.21,0.07-0.33c0.05-0.12,0.11-0.23,0.19-0.33
		c0.08-0.1,0.17-0.18,0.27-0.25c0.1-0.07,0.2-0.1,0.29-0.1c0.04,0,0.07,0,0.11,0.02c0.04,0.01,0.07,0.03,0.1,0.05
		c0.95,0.66,1.99,0.98,3.12,0.98c0.72,0,1.3-0.13,1.75-0.4c0.45-0.27,0.67-0.66,0.67-1.18c0-0.45-0.12-0.79-0.36-1.03
		c-0.24-0.24-0.64-0.45-1.2-0.63l-2.46-0.82c-0.85-0.28-1.47-0.65-1.86-1.09c-0.39-0.44-0.59-1.04-0.59-1.8
		c0-0.95,0.39-1.7,1.16-2.25s1.76-0.83,2.96-0.83c0.75,0,1.46,0.11,2.15,0.33c0.68,0.22,1.21,0.49,1.58,0.8
		c0.07,0.06,0.13,0.13,0.16,0.21c0.03,0.08,0.05,0.17,0.05,0.26c0,0.2-0.07,0.38-0.21,0.55s-0.31,0.25-0.5,0.25
		c-0.12,0-0.25-0.04-0.38-0.12c-0.87-0.5-1.77-0.75-2.71-0.75c-0.47,0-0.88,0.04-1.22,0.13C26.37,4,26.08,4.15,25.85,4.38
		c-0.23,0.23-0.34,0.52-0.34,0.88c0,0.35,0.09,0.63,0.27,0.84c0.18,0.21,0.48,0.39,0.88,0.52l2.45,0.78c0.38,0.12,0.72,0.25,1,0.38
		c0.29,0.13,0.55,0.29,0.8,0.46c0.24,0.18,0.44,0.37,0.6,0.58c0.15,0.21,0.28,0.46,0.36,0.75c0.09,0.28,0.13,0.6,0.13,0.94
		c0,0.68-0.18,1.27-0.53,1.77s-0.86,0.88-1.51,1.13c-0.65,0.26-1.41,0.39-2.28,0.39C26.01,13.81,24.68,13.38,23.68,12.52z"/>
	<path class="st0" d="M35.19,13.2c-0.58-0.36-1.03-0.84-1.33-1.44c-0.3-0.6-0.45-1.26-0.45-2c0-0.54,0.09-1.05,0.27-1.53
		c0.18-0.48,0.44-0.9,0.77-1.27c0.33-0.36,0.73-0.65,1.22-0.86c0.48-0.21,1.01-0.32,1.58-0.32c0.86,0,1.58,0.2,2.14,0.6
		c0.07,0.05,0.13,0.11,0.18,0.17c0.05,0.06,0.09,0.12,0.11,0.17c0.02,0.06,0.04,0.11,0.04,0.17c0,0.06-0.01,0.11-0.03,0.16
		c-0.02,0.05-0.04,0.09-0.08,0.14c-0.03,0.04-0.07,0.08-0.12,0.11s-0.09,0.05-0.15,0.07c-0.06,0.02-0.12,0.02-0.18,0.02
		c-0.06,0-0.11-0.01-0.17-0.02c-0.06-0.02-0.12-0.04-0.17-0.07c-0.45-0.25-0.93-0.37-1.43-0.37c-0.7,0-1.26,0.26-1.66,0.78
		c-0.41,0.52-0.61,1.2-0.61,2.04c0,0.85,0.2,1.53,0.59,2.05c0.39,0.52,0.94,0.78,1.64,0.78c0.68,0,1.23-0.15,1.63-0.44
		c0.06-0.05,0.13-0.08,0.19-0.1s0.13-0.03,0.19-0.03c0.05,0,0.09,0.01,0.14,0.02c0.04,0.01,0.08,0.03,0.12,0.05
		c0.04,0.02,0.07,0.05,0.1,0.08c0.03,0.03,0.06,0.07,0.08,0.1c0.02,0.04,0.04,0.08,0.05,0.12c0.01,0.04,0.02,0.09,0.02,0.14
		c0,0.19-0.09,0.37-0.28,0.53c-0.53,0.46-1.32,0.69-2.37,0.69C36.44,13.75,35.77,13.57,35.19,13.2z"/>
	<path class="st0" d="M41.58,13.42c-0.17-0.14-0.25-0.35-0.25-0.6V3.33c0-0.25,0.09-0.44,0.26-0.58c0.17-0.14,0.37-0.21,0.6-0.21
		c0.23,0,0.42,0.07,0.59,0.21c0.17,0.14,0.25,0.34,0.25,0.58v3.65c0.23-0.37,0.57-0.65,1-0.86s0.94-0.31,1.52-0.31
		c0.38,0,0.73,0.06,1.05,0.17c0.33,0.12,0.62,0.29,0.89,0.52c0.27,0.23,0.47,0.54,0.63,0.93c0.15,0.39,0.23,0.83,0.23,1.34v4.06
		c0,0.26-0.08,0.46-0.26,0.6c-0.17,0.14-0.37,0.22-0.6,0.22c-0.23,0-0.42-0.07-0.59-0.22s-0.25-0.35-0.25-0.6v-4.1
		c0-0.58-0.14-1.02-0.43-1.31c-0.29-0.3-0.66-0.45-1.12-0.45c-0.57,0-1.06,0.21-1.46,0.63c-0.41,0.42-0.61,0.98-0.61,1.68v3.54
		c0,0.26-0.08,0.46-0.25,0.6c-0.17,0.14-0.37,0.22-0.6,0.22C41.95,13.64,41.75,13.57,41.58,13.42z"/>
	<path class="st0" d="M50.7,13.43c-0.17-0.14-0.25-0.34-0.25-0.6V6.7c0-0.25,0.09-0.44,0.26-0.58c0.17-0.14,0.37-0.21,0.6-0.21
		c0.23,0,0.43,0.07,0.6,0.21s0.25,0.33,0.25,0.57v0.43c0.22-0.43,0.54-0.75,0.97-0.98s0.94-0.34,1.53-0.34
		c0.38,0,0.74,0.06,1.07,0.17s0.63,0.29,0.89,0.52c0.26,0.23,0.47,0.54,0.62,0.93c0.15,0.39,0.22,0.83,0.22,1.34v4.06
		c0,0.26-0.08,0.46-0.25,0.6c-0.17,0.14-0.37,0.21-0.6,0.21c-0.23,0-0.42-0.07-0.59-0.21s-0.25-0.34-0.25-0.6V8.75
		c0-0.58-0.15-1.03-0.44-1.34c-0.29-0.31-0.68-0.46-1.15-0.46c-0.55,0-1.03,0.22-1.42,0.65c-0.4,0.43-0.6,1-0.6,1.71v3.52
		c0,0.25-0.08,0.45-0.25,0.6s-0.37,0.22-0.6,0.22C51.07,13.64,50.87,13.57,50.7,13.43z"/>
	<path class="st0" d="M60.21,12.65c-0.72-0.72-1.08-1.7-1.08-2.95c0-0.52,0.08-1.02,0.25-1.48c0.17-0.47,0.41-0.88,0.72-1.24
		c0.31-0.36,0.7-0.65,1.18-0.86c0.48-0.21,1.01-0.32,1.59-0.32c0.59,0,1.12,0.1,1.58,0.3c0.46,0.2,0.82,0.48,1.1,0.82
		c0.28,0.35,0.49,0.74,0.63,1.18s0.22,0.91,0.23,1.42c0,0.19-0.04,0.34-0.12,0.46c-0.08,0.12-0.21,0.18-0.38,0.18h-5.08
		c0.04,0.82,0.26,1.43,0.68,1.81c0.42,0.39,0.97,0.59,1.67,0.59c0.64,0,1.36-0.28,2.15-0.84c0.1-0.07,0.2-0.1,0.29-0.1
		c0.14,0,0.27,0.06,0.38,0.18c0.11,0.12,0.16,0.26,0.16,0.41c0,0.2-0.08,0.36-0.25,0.5c-0.77,0.68-1.72,1.02-2.85,1.02
		C61.87,13.74,60.92,13.37,60.21,12.65z M64.95,9.14c-0.05-0.63-0.24-1.15-0.57-1.57s-0.81-0.63-1.44-0.63
		c-0.33,0-0.62,0.06-0.88,0.19c-0.26,0.13-0.48,0.3-0.64,0.51c-0.17,0.21-0.29,0.44-0.39,0.7c-0.1,0.25-0.16,0.52-0.18,0.8H64.95z"
		/>
	<path class="st0" d="M68.18,4.02C68,3.84,67.9,3.61,67.9,3.31c0-0.29,0.09-0.52,0.28-0.7s0.44-0.27,0.75-0.27s0.56,0.09,0.74,0.27
		c0.19,0.18,0.28,0.42,0.28,0.7c0,0.29-0.09,0.53-0.28,0.71c-0.19,0.18-0.44,0.27-0.75,0.27C68.62,4.29,68.37,4.2,68.18,4.02z
		 M68.32,13.42c-0.16-0.15-0.24-0.35-0.24-0.62V6.75c0-0.26,0.09-0.47,0.26-0.62c0.17-0.15,0.37-0.22,0.6-0.22
		c0.23,0,0.42,0.08,0.59,0.22c0.17,0.15,0.25,0.36,0.25,0.62v6.05c0,0.26-0.09,0.46-0.26,0.62c-0.17,0.15-0.38,0.23-0.61,0.23
		C68.68,13.64,68.49,13.56,68.32,13.42z"/>
	<path class="st0" d="M73.31,13.42c-0.43-0.22-0.78-0.51-1.05-0.89s-0.48-0.8-0.63-1.28c-0.15-0.48-0.22-0.99-0.22-1.53
		c0-1.17,0.31-2.12,0.93-2.84s1.46-1.08,2.53-1.08c1.14,0,1.96,0.43,2.47,1.28V3.32c0-0.25,0.08-0.44,0.25-0.58
		c0.17-0.14,0.37-0.21,0.6-0.21s0.43,0.07,0.6,0.21c0.17,0.14,0.25,0.33,0.25,0.58v9.5c0,0.25-0.08,0.45-0.26,0.6
		c-0.17,0.14-0.37,0.22-0.6,0.22c-0.56,0-0.84-0.27-0.84-0.81v-0.43c-0.51,0.9-1.37,1.35-2.59,1.35
		C74.22,13.75,73.74,13.64,73.31,13.42z M76.83,11.87c0.33-0.48,0.5-1.19,0.5-2.13c0-0.37-0.04-0.71-0.12-1.03
		c-0.08-0.32-0.2-0.62-0.36-0.89c-0.16-0.27-0.39-0.48-0.67-0.64c-0.29-0.16-0.62-0.24-1-0.24c-0.3,0-0.58,0.06-0.82,0.17
		s-0.44,0.26-0.59,0.44c-0.16,0.18-0.28,0.4-0.38,0.65s-0.17,0.5-0.21,0.75C73.13,9.2,73.1,9.46,73.1,9.73
		c0,0.26,0.02,0.52,0.06,0.77c0.04,0.25,0.11,0.5,0.21,0.76c0.1,0.26,0.22,0.48,0.37,0.68c0.15,0.19,0.34,0.35,0.58,0.47
		c0.24,0.12,0.52,0.18,0.82,0.18C75.93,12.59,76.5,12.35,76.83,11.87z"/>
	<path class="st0" d="M81.85,12.65c-0.72-0.72-1.08-1.7-1.08-2.95c0-0.52,0.08-1.02,0.25-1.48c0.17-0.47,0.41-0.88,0.72-1.24
		c0.31-0.36,0.7-0.65,1.18-0.86C83.4,5.9,83.93,5.8,84.51,5.8c0.59,0,1.12,0.1,1.58,0.3c0.46,0.2,0.82,0.48,1.1,0.82
		c0.28,0.35,0.49,0.74,0.63,1.18s0.22,0.91,0.23,1.42c0,0.19-0.04,0.34-0.12,0.46c-0.08,0.12-0.21,0.18-0.38,0.18h-5.08
		c0.04,0.82,0.26,1.43,0.68,1.81c0.42,0.39,0.97,0.59,1.67,0.59c0.64,0,1.36-0.28,2.15-0.84c0.1-0.07,0.2-0.1,0.29-0.1
		c0.14,0,0.27,0.06,0.38,0.18c0.11,0.12,0.16,0.26,0.16,0.41c0,0.2-0.08,0.36-0.25,0.5c-0.77,0.68-1.72,1.02-2.85,1.02
		C83.52,13.74,82.57,13.37,81.85,12.65z M86.59,9.14c-0.05-0.63-0.24-1.15-0.57-1.57s-0.81-0.63-1.44-0.63
		c-0.33,0-0.62,0.06-0.88,0.19c-0.26,0.13-0.48,0.3-0.64,0.51c-0.17,0.21-0.29,0.44-0.39,0.7c-0.1,0.25-0.16,0.52-0.18,0.8H86.59z"
		/>
	<path class="st0" d="M89.95,13.43c-0.17-0.14-0.25-0.34-0.25-0.6V6.69c0-0.17,0.04-0.32,0.13-0.44c0.09-0.12,0.19-0.21,0.32-0.26
		s0.27-0.08,0.42-0.08c0.23,0,0.43,0.06,0.6,0.19s0.25,0.31,0.24,0.53l-0.02,0.96c0.13-0.48,0.4-0.88,0.8-1.21
		c0.4-0.32,0.85-0.49,1.35-0.49c0.1,0,0.2,0.02,0.28,0.06c0.08,0.04,0.15,0.1,0.2,0.17c0.05,0.07,0.09,0.15,0.12,0.24
		c0.03,0.09,0.04,0.18,0.04,0.27c0,0.19-0.05,0.35-0.15,0.48c-0.1,0.13-0.23,0.2-0.4,0.2c-0.32,0-0.61,0.03-0.86,0.08
		c-0.25,0.06-0.48,0.15-0.69,0.29s-0.37,0.33-0.49,0.59c-0.11,0.26-0.17,0.57-0.17,0.94v3.61c0,0.25-0.09,0.45-0.26,0.59
		s-0.38,0.21-0.61,0.21C90.31,13.64,90.11,13.57,89.95,13.43z"/>
</g>
<g>
	<path class="st0" d="M3.09,40.25c-1.23-1.23-1.85-2.92-1.85-5.06c0-0.89,0.14-1.74,0.43-2.54s0.7-1.51,1.23-2.13
		s1.21-1.11,2.03-1.47s1.73-0.54,2.73-0.54c1.02,0,1.92,0.17,2.7,0.52c0.78,0.34,1.41,0.82,1.88,1.41c0.47,0.6,0.83,1.27,1.08,2.02
		c0.25,0.75,0.38,1.56,0.4,2.44c0,0.32-0.07,0.58-0.21,0.79c-0.14,0.21-0.36,0.31-0.66,0.31H4.16c0.06,1.41,0.45,2.44,1.16,3.11
		c0.71,0.67,1.67,1.01,2.86,1.02c1.11,0,2.34-0.48,3.69-1.43c0.17-0.11,0.34-0.17,0.5-0.17c0.25,0,0.46,0.1,0.64,0.3
		c0.18,0.2,0.27,0.44,0.27,0.7c0,0.34-0.15,0.62-0.44,0.86c-1.33,1.17-2.96,1.75-4.88,1.75C5.95,42.11,4.32,41.48,3.09,40.25z
		 M11.22,34.23c-0.08-1.08-0.4-1.98-0.97-2.69c-0.57-0.72-1.39-1.08-2.47-1.08c-0.56,0-1.06,0.11-1.51,0.33
		c-0.45,0.22-0.82,0.51-1.1,0.88c-0.28,0.36-0.51,0.76-0.67,1.19c-0.16,0.43-0.27,0.89-0.31,1.37H11.22z"/>
	<path class="st0" d="M17.46,41.46c-0.32-0.31-0.48-0.69-0.48-1.13V24.5c0-0.44,0.16-0.82,0.48-1.14c0.32-0.32,0.71-0.48,1.16-0.48
		h4.56c3.38,0,5.94,0.82,7.68,2.47s2.61,4.02,2.61,7.13c0,3.04-0.88,5.38-2.63,7.01c-1.76,1.63-4.23,2.44-7.41,2.44h-4.8
		C18.17,41.93,17.78,41.77,17.46,41.46z M23.62,39.31c1.21,0,2.23-0.14,3.06-0.42c0.83-0.28,1.49-0.71,1.98-1.3
		c0.5-0.59,0.85-1.3,1.07-2.14c0.22-0.84,0.33-1.85,0.33-3.05c0-2.49-0.55-4.27-1.64-5.33c-1.09-1.06-2.82-1.59-5.2-1.59h-2.96
		v13.81H23.62z"/>
	<path class="st0" d="M37.9,40.25c-1.23-1.23-1.85-2.92-1.85-5.06c0-0.89,0.14-1.74,0.43-2.54s0.7-1.51,1.23-2.13
		s1.21-1.11,2.03-1.47s1.73-0.54,2.73-0.54c1.02,0,1.92,0.17,2.7,0.52c0.78,0.34,1.41,0.82,1.88,1.41c0.47,0.6,0.83,1.27,1.08,2.02
		c0.25,0.75,0.38,1.56,0.4,2.44c0,0.32-0.07,0.58-0.21,0.79c-0.14,0.21-0.36,0.31-0.66,0.31h-8.71c0.06,1.41,0.45,2.44,1.16,3.11
		c0.71,0.67,1.67,1.01,2.86,1.02c1.11,0,2.34-0.48,3.69-1.43c0.17-0.11,0.34-0.17,0.5-0.17c0.25,0,0.46,0.1,0.64,0.3
		c0.18,0.2,0.27,0.44,0.27,0.7c0,0.34-0.15,0.62-0.44,0.86c-1.33,1.17-2.96,1.75-4.88,1.75C40.76,42.11,39.13,41.48,37.9,40.25z
		 M46.02,34.23c-0.08-1.08-0.4-1.98-0.97-2.69c-0.57-0.72-1.39-1.08-2.47-1.08c-0.56,0-1.06,0.11-1.51,0.33
		c-0.45,0.22-0.82,0.51-1.1,0.88c-0.28,0.36-0.51,0.76-0.67,1.19c-0.16,0.43-0.27,0.89-0.31,1.37H46.02z"/>
	<path class="st0" d="M50.87,39.88c0-0.05,0-0.1,0.01-0.15c0.01-0.05,0.02-0.09,0.03-0.14s0.03-0.09,0.05-0.13s0.05-0.09,0.07-0.13
		c0.03-0.04,0.06-0.08,0.09-0.11c0.04-0.04,0.07-0.07,0.11-0.1c0.04-0.03,0.08-0.06,0.13-0.08s0.09-0.04,0.14-0.06
		s0.1-0.03,0.15-0.04s0.11-0.01,0.16-0.01c0.21,0,0.43,0.06,0.65,0.19c0.35,0.21,0.68,0.39,0.98,0.53c0.3,0.14,0.7,0.28,1.21,0.41
		c0.5,0.13,1.01,0.19,1.53,0.19c0.56,0,1.06-0.06,1.5-0.19c0.44-0.13,0.81-0.35,1.1-0.66c0.29-0.31,0.44-0.7,0.44-1.16
		c0-0.44-0.16-0.81-0.48-1.09c-0.32-0.29-0.82-0.52-1.51-0.7l-2.19-0.56c-0.43-0.12-0.79-0.21-1.07-0.3
		c-0.28-0.08-0.59-0.19-0.91-0.31c-0.32-0.12-0.59-0.25-0.79-0.37c-0.2-0.12-0.4-0.28-0.6-0.46c-0.2-0.18-0.35-0.38-0.46-0.6
		c-0.11-0.22-0.2-0.47-0.27-0.76c-0.07-0.29-0.1-0.61-0.1-0.96c0-0.94,0.32-1.72,0.96-2.35c0.94-0.89,2.38-1.34,4.34-1.34
		c1.55,0,2.98,0.33,4.29,1c0.42,0.2,0.64,0.51,0.64,0.93c0,0.15-0.04,0.29-0.11,0.42c-0.07,0.13-0.17,0.24-0.31,0.33
		c-0.14,0.08-0.29,0.13-0.47,0.13c-0.08,0-0.16-0.01-0.23-0.03c-0.08-0.02-0.16-0.04-0.25-0.07c-0.01,0-0.12-0.04-0.34-0.13
		c-0.22-0.08-0.38-0.14-0.48-0.18c-0.1-0.04-0.27-0.09-0.52-0.16c-0.25-0.07-0.46-0.12-0.64-0.16c-0.18-0.04-0.4-0.07-0.66-0.1
		c-0.26-0.03-0.51-0.05-0.76-0.05c-0.51,0-0.97,0.05-1.37,0.15s-0.73,0.28-1,0.52c-0.27,0.25-0.4,0.56-0.4,0.94
		c0,0.48,0.14,0.82,0.41,1.03s0.83,0.41,1.66,0.62l2.15,0.53c1.39,0.34,2.39,0.82,3.01,1.43s0.93,1.42,0.93,2.44
		c0,0.68-0.13,1.29-0.4,1.82c-0.27,0.54-0.64,0.97-1.12,1.3c-0.48,0.33-1.04,0.58-1.68,0.75c-0.64,0.17-1.34,0.25-2.1,0.25
		c-0.42,0-0.84-0.03-1.26-0.08c-1.5-0.19-2.78-0.66-3.82-1.41C51.01,40.47,50.87,40.2,50.87,39.88z"/>
	<path class="st0" d="M64.89,25.45c-0.32-0.31-0.48-0.71-0.48-1.21c0-0.5,0.16-0.9,0.48-1.21c0.32-0.31,0.75-0.46,1.28-0.46
		c0.53,0,0.96,0.15,1.27,0.46c0.32,0.31,0.48,0.71,0.48,1.21c0,0.5-0.16,0.91-0.48,1.21c-0.32,0.31-0.75,0.46-1.28,0.46
		C65.63,25.91,65.21,25.76,64.89,25.45z M65.13,41.56c-0.28-0.25-0.42-0.61-0.42-1.07V30.13c0-0.45,0.15-0.8,0.44-1.06
		s0.64-0.38,1.04-0.38c0.39,0,0.73,0.13,1.01,0.38s0.43,0.61,0.43,1.06v10.36c0,0.44-0.15,0.79-0.44,1.05
		c-0.3,0.26-0.64,0.39-1.04,0.39S65.4,41.81,65.13,41.56z"/>
	<path class="st0" d="M74.2,47.42c-0.84-0.21-1.51-0.47-2-0.77c-0.17-0.11-0.29-0.24-0.38-0.39c-0.08-0.16-0.13-0.31-0.13-0.48
		c0-0.16,0.04-0.32,0.11-0.46c0.08-0.15,0.18-0.26,0.33-0.36c0.14-0.09,0.3-0.14,0.48-0.14c0.04,0,0.09,0,0.13,0.01
		c0.04,0,0.08,0.01,0.13,0.03c0.05,0.01,0.1,0.03,0.14,0.05c0.11,0.04,0.35,0.12,0.72,0.27c0.38,0.14,0.67,0.25,0.88,0.31
		c0.21,0.07,0.52,0.13,0.91,0.2s0.79,0.1,1.17,0.1c1.25,0,2.23-0.34,2.94-1.01c0.71-0.67,1.07-1.61,1.07-2.83v-2.22
		c-0.8,1.48-2.16,2.22-4.07,2.22c-1.9,0-3.42-0.6-4.54-1.79c-1.12-1.19-1.68-2.78-1.68-4.75c0-1.33,0.24-2.51,0.72-3.54
		s1.19-1.85,2.13-2.46s2.04-0.9,3.29-0.9c0.75,0,1.41,0.1,1.96,0.3c0.56,0.2,1,0.45,1.32,0.75c0.32,0.3,0.63,0.69,0.94,1.15v-0.89
		c0.04-0.35,0.2-0.63,0.46-0.83s0.56-0.3,0.9-0.3c0.36,0,0.68,0.12,0.96,0.37c0.27,0.24,0.41,0.58,0.41,1.01v11.67
		c0,2.01-0.59,3.51-1.79,4.51c-1.19,1-2.79,1.5-4.8,1.5C75.95,47.74,75.05,47.63,74.2,47.42z M79.69,38.87
		c0.66-0.77,1-1.95,1.01-3.53c0-0.72-0.06-1.36-0.19-1.92c-0.12-0.57-0.32-1.08-0.59-1.53c-0.27-0.46-0.64-0.81-1.12-1.06
		c-0.47-0.25-1.04-0.37-1.69-0.37c-0.66,0-1.23,0.13-1.73,0.39c-0.5,0.26-0.9,0.62-1.19,1.08s-0.51,0.97-0.66,1.54
		c-0.15,0.57-0.22,1.18-0.22,1.84c0,1.54,0.36,2.71,1.08,3.5s1.61,1.2,2.67,1.23C78.15,40.03,79.03,39.64,79.69,38.87z"/>
	<path class="st0" d="M87.53,41.57c-0.29-0.24-0.43-0.59-0.43-1.03v-10.5c0-0.42,0.15-0.76,0.44-1s0.64-0.37,1.04-0.37
		c0.4,0,0.74,0.12,1.02,0.35s0.42,0.56,0.42,0.98v0.74c0.37-0.73,0.93-1.29,1.67-1.68s1.62-0.58,2.63-0.58c0.65,0,1.27,0.1,1.84,0.3
		c0.57,0.2,1.08,0.5,1.53,0.9c0.45,0.4,0.8,0.93,1.06,1.59c0.26,0.66,0.38,1.43,0.38,2.3v6.97c0,0.44-0.15,0.79-0.44,1.03
		c-0.29,0.24-0.64,0.37-1.04,0.37c-0.39,0-0.73-0.12-1.01-0.37c-0.28-0.24-0.42-0.59-0.42-1.03v-6.99c0-1-0.25-1.76-0.76-2.3
		c-0.5-0.53-1.16-0.8-1.98-0.8c-0.95,0-1.76,0.37-2.44,1.11c-0.68,0.74-1.03,1.72-1.04,2.93v6.04c0,0.43-0.14,0.77-0.43,1.02
		c-0.29,0.25-0.63,0.37-1.03,0.37S87.81,41.82,87.53,41.57z"/>
</g>
</svg>
